<svg width="800" height="800" viewBox="0 0 800 800" fill="none" xmlns="http://www.w3.org/2000/svg">
<g clip-path="url(#clip0_3_2)">
<path d="M174.162 453.215L409.595 709.865C428.621 732.293 425.864 765.899 403.436 784.926C381.008 803.952 347.402 801.195 328.375 778.767L15.2938 437.471C10.7918 432.948 7.14366 427.649 4.52501 421.829C1.2686 414.594 -0.326932 406.723 -0.144517 398.791L-0.143735 398.742C0.0375419 390.828 1.97625 383.054 5.53205 375.981C5.87782 375.296 6.23832 374.619 6.6133 373.95C8.7832 370.068 11.4349 366.475 14.5055 363.257L335.911 16.4945C355.905 -5.07656 389.599 -6.35468 411.17 13.6383C432.74 33.6313 434.019 67.3266 414.026 88.8969L175.069 346.706H745.741C775.152 346.706 798.995 370.549 798.995 399.961C798.995 429.373 775.152 453.216 745.741 453.216H174.162V453.215Z" fill="white"/>
</g>
<defs>
<clipPath id="clip0_3_2">
<rect width="800" height="800" fill="white"/>
</clipPath>
</defs>
</svg>
