<svg width="800" height="800" viewBox="0 0 800 800" fill="none" xmlns="http://www.w3.org/2000/svg">
<path d="M666.667 600H466.667M566.667 500V700M256.071 466.667C287.748 487.727 325.773 500 366.663 500C390.04 500 412.48 495.99 433.333 488.62M350 700H186.667C167.998 700 158.664 700 151.534 696.367C145.262 693.17 140.162 688.073 136.966 681.8C133.333 674.67 133.333 665.337 133.333 646.667V566.667C133.333 511.437 178.105 466.667 233.333 466.667H250M500 233.333C500 306.971 440.303 366.667 366.667 366.667C293.029 366.667 233.333 306.971 233.333 233.333C233.333 159.695 293.029 100 366.667 100C440.303 100 500 159.695 500 233.333Z" stroke="white" stroke-width="66.6667" stroke-linecap="round" stroke-linejoin="round"/>
</svg>
